<?xml version="1.0" standalone="no"?>
<!DOCTYPE svg PUBLIC "-//W3C//DTD SVG 20010904//EN"
 "http://www.w3.org/TR/2001/REC-SVG-20010904/DTD/svg10.dtd">
<svg version="1.0" xmlns="http://www.w3.org/2000/svg"
 width="512.000000pt" height="512.000000pt" viewBox="0 0 512.000000 512.000000"
 preserveAspectRatio="xMidYMid meet">

<g transform="translate(0.000000,512.000000) scale(0.100000,-0.100000)"
fill="#000000" stroke="none">
<path d="M1043 3484 c-6 -10 -21 -50 -33 -89 -12 -38 -25 -73 -27 -78 -3 -4
-47 22 -100 58 -52 37 -97 65 -99 63 -2 -3 3 -40 10 -84 8 -43 13 -80 11 -82
-1 -2 -28 13 -59 33 -83 53 -93 54 -58 7 16 -23 40 -68 52 -99 13 -32 24 -59
25 -61 1 -1 31 11 67 27 163 74 344 93 542 56 l33 -7 12 62 c7 33 18 79 26
100 8 22 10 40 6 40 -4 0 -31 -24 -58 -53 l-51 -53 -6 44 c-3 25 -6 64 -6 88
0 24 -3 43 -7 43 -5 -1 -43 -38 -85 -84 l-77 -83 -55 86 c-47 74 -55 83 -63
66z"/>
<path d="M1065 3199 c-61 -9 -209 -52 -234 -68 -11 -7 -9 -11 10 -21 29 -15
69 -51 69 -61 0 -5 -12 -4 -26 1 -64 25 -118 7 -140 -45 -17 -42 -17 -79 1
-129 l13 -38 -29 28 c-37 36 -54 94 -41 145 9 37 9 38 -10 28 -38 -20 -143
-134 -187 -202 -48 -74 -46 -87 12 -87 l28 0 -29 -42 c-65 -95 -132 -262 -132
-329 0 -34 0 -33 64 -14 27 8 52 15 56 15 3 0 4 -55 2 -122 -6 -172 31 -358
71 -358 17 0 138 125 186 193 19 26 38 47 41 47 13 0 30 -112 30 -196 0 -45
-7 -117 -15 -160 -17 -90 -21 -83 75 -116 97 -34 264 -32 375 5 44 14 101 40
127 56 l47 30 11 -37 c5 -20 10 -43 10 -49 0 -28 39 -5 113 66 94 89 165 219
182 334 l7 49 34 -33 33 -32 9 24 c38 98 46 287 18 404 -18 77 -91 233 -130
280 l-25 30 -1 -25 c0 -24 -1 -23 -29 10 -21 26 -26 38 -19 48 15 18 -7 62
-31 62 -10 0 -24 -6 -31 -14 -10 -13 -16 -12 -43 5 -18 10 -36 19 -40 19 -13
0 31 -54 91 -113 l53 -52 -100 0 -101 0 -57 58 -58 57 17 30 c19 33 9 38 -31
16 -22 -12 -31 -10 -83 14 -47 23 -65 26 -89 20 -39 -12 -91 -42 -96 -56 -6
-19 73 -44 136 -44 54 0 64 -4 108 -39 99 -79 100 -77 -45 -73 -70 2 -142 8
-160 14 -46 14 -89 53 -102 93 -8 25 -18 35 -41 40 -25 6 -28 9 -17 22 6 8 34
27 60 42 42 24 46 30 33 41 -8 7 -15 16 -15 21 0 13 126 71 183 84 58 13 85 5
175 -57 47 -33 58 -31 67 12 4 17 9 30 11 30 15 0 91 -46 148 -90 l66 -50 -20
50 c-11 28 -20 60 -20 71 0 39 -95 103 -198 133 -49 14 -53 14 -48 0 3 -9 9
-28 13 -42 6 -25 3 -24 -45 19 -67 61 -116 70 -267 48z m429 -575 c46 -26 46
-26 46 -79 l0 -54 -75 -50 c-72 -48 -130 -69 -157 -58 -7 3 -31 39 -52 81
l-39 75 24 20 c38 31 159 91 184 91 12 0 43 -12 69 -26z m207 -38 c13 -58 8
-161 -7 -176 -6 -6 -23 8 -47 40 -31 41 -37 58 -37 97 0 42 4 51 32 75 18 14
36 24 40 22 3 -2 12 -28 19 -58z m-73 -237 c21 -42 19 -67 -8 -120 -15 -29
-61 -79 -72 -79 -4 0 -8 19 -8 43 0 46 -13 77 -24 58 -9 -14 -81 -51 -100 -51
-8 0 -26 20 -40 45 l-25 46 27 9 c36 14 81 39 117 67 20 15 43 23 71 23 39 0
43 -3 62 -41z"/>
<path d="M2110 2880 l0 -310 60 0 59 0 3 103 3 102 80 6 c83 5 125 21 162 61
70 74 70 211 0 287 -45 49 -91 61 -234 61 l-133 0 0 -310z m266 168 c19 -18
26 -36 26 -63 0 -58 -35 -88 -112 -93 l-60 -4 0 97 0 97 60 -4 c48 -3 66 -10
86 -30z"/>
<path d="M3937 3152 c-22 -25 -21 -75 1 -95 28 -25 87 -22 106 5 36 51 7 108
-53 108 -24 0 -44 -7 -54 -18z"/>
<path d="M2740 2979 c-14 -6 -35 -20 -47 -31 l-23 -21 0 26 c0 26 -2 27 -50
27 l-50 0 0 -205 0 -205 54 0 54 0 4 130 c3 118 5 131 25 152 16 15 35 22 63
23 l41 0 -3 55 c-3 60 -17 70 -68 49z"/>
<path d="M2924 2960 c-142 -81 -138 -296 6 -370 81 -41 194 -30 257 24 l28 25
-34 35 c-31 32 -35 34 -56 20 -40 -26 -87 -35 -122 -23 -30 10 -63 42 -63 61
0 4 66 9 148 10 l147 3 -3 55 c-8 156 -169 240 -308 160z m170 -91 c49 -38 35
-49 -64 -49 -56 0 -90 4 -90 10 0 6 11 22 25 35 31 32 91 34 129 4z"/>
<path d="M3422 2965 c-30 -25 -31 -25 -37 -5 -5 16 -15 20 -56 20 l-49 0 0
-205 0 -205 55 0 55 0 0 134 c0 113 3 137 18 154 27 31 55 35 85 11 27 -20 27
-21 27 -160 l0 -139 55 0 55 0 0 124 c0 69 4 136 10 151 13 33 52 48 85 33 32
-14 35 -26 38 -178 l2 -125 55 0 55 0 0 155 c0 129 -3 161 -18 188 -45 83
-159 97 -234 29 -13 -11 -23 -15 -23 -9 0 21 -63 52 -107 52 -30 0 -50 -7 -71
-25z"/>
<path d="M4200 2968 c-128 -69 -149 -253 -40 -351 71 -65 194 -70 283 -11 20
13 37 27 37 31 0 4 -14 21 -31 39 l-31 32 -35 -20 c-46 -28 -104 -28 -140 -2
-15 12 -29 29 -31 38 -3 14 12 16 143 16 l147 0 -4 64 c-7 113 -73 178 -187
184 -55 3 -74 -1 -111 -20z m165 -103 c14 -13 25 -29 25 -35 0 -6 -34 -10 -90
-10 -99 0 -113 11 -64 49 38 30 98 28 129 -4z"/>
<path d="M4714 2976 c-18 -8 -35 -19 -38 -25 -11 -18 -26 -13 -26 9 0 17 -7
20 -50 20 l-50 0 0 -205 0 -205 54 0 54 0 4 130 c3 118 5 131 25 152 16 15 35
22 63 23 l41 0 -3 55 c-3 62 -17 71 -74 46z"/>
<path d="M3930 2775 l0 -205 55 0 55 0 0 205 0 205 -55 0 -55 0 0 -205z"/>
<path d="M2110 2210 l0 -300 190 0 190 0 0 55 0 55 -130 0 -130 0 0 245 0 245
-60 0 -60 0 0 -300z"/>
<path d="M2635 2304 c-77 -42 -114 -106 -115 -196 0 -68 12 -103 48 -141 45
-48 93 -67 169 -67 57 0 76 5 121 30 28 17 52 34 52 38 0 5 -16 23 -35 42 -34
33 -35 33 -55 15 -13 -11 -41 -20 -75 -23 -51 -4 -56 -2 -87 29 l-33 34 153 3
152 3 0 47 c0 63 -38 139 -86 172 -48 32 -162 40 -209 14z m160 -109 c14 -13
25 -29 25 -35 0 -6 -34 -10 -90 -10 -97 0 -106 6 -68 47 31 33 100 32 133 -2z"/>
<path d="M3095 2302 c-114 -55 -155 -178 -99 -291 37 -73 96 -111 175 -111 43
0 65 6 92 24 35 24 36 24 42 5 5 -15 16 -19 56 -19 l49 0 0 200 0 200 -49 0
c-41 0 -51 -4 -56 -20 -6 -19 -7 -19 -35 2 -41 30 -123 35 -175 10z m145 -97
c32 -17 60 -61 60 -95 0 -37 -30 -81 -67 -96 -67 -28 -143 21 -143 93 0 45 14
70 53 93 39 24 59 25 97 5z"/>
<path d="M3585 2306 c-53 -20 -111 -83 -125 -137 -25 -92 16 -198 94 -244 56
-33 143 -35 192 -4 l34 21 -6 -34 c-10 -52 -31 -76 -74 -88 -47 -13 -104 -1
-143 30 l-25 20 -24 -33 c-40 -53 -41 -57 -22 -73 77 -62 203 -73 295 -26 41
20 60 38 79 72 24 44 25 52 28 273 l4 227 -56 0 c-50 0 -56 -2 -56 -21 0 -20
0 -20 -31 2 -39 28 -111 34 -164 15z m146 -109 c85 -58 47 -191 -56 -191 -47
0 -88 32 -99 78 -13 49 1 85 43 113 43 29 69 29 112 0z"/>
<path d="M4489 2297 c-64 -34 -102 -93 -107 -166 -10 -142 72 -231 214 -231
67 0 106 13 154 50 l25 19 -37 37 -36 37 -27 -22 c-40 -31 -117 -29 -150 4
-14 13 -25 29 -25 35 0 6 51 10 146 10 l146 0 -4 64 c-3 47 -11 74 -30 104
-53 80 -178 107 -269 59z m166 -102 c14 -13 25 -29 25 -35 0 -6 -34 -10 -90
-10 -99 0 -113 11 -64 49 38 30 98 28 129 -4z"/>
<path d="M3940 2178 c0 -150 13 -193 69 -241 59 -49 192 -51 255 -3 62 47 70
73 74 234 l4 142 -55 0 -55 0 -4 -122 c-2 -86 -8 -130 -18 -146 -20 -30 -69
-46 -104 -32 -42 16 -56 63 -56 190 l0 110 -55 0 -55 0 0 -132z"/>
</g>
</svg>
